<svg xmlns="http://www.w3.org/2000/svg" width="145.28" height="60.956" viewBox="0 0 145.28 60.956">
  <g id="Group_430" data-name="Group 430" transform="translate(-5.213 -9.285)">
    <g id="Group_176" data-name="Group 176" transform="translate(129.818 61.848)">
      <path id="Path_286" data-name="Path 286" d="M488.919,212.968l-.007.021c-.28.115-.561.23-.848.345Z" transform="translate(-488.064 -212.968)" fill="#a6b745"/>
    </g>
    <path id="Path_287" data-name="Path 287" d="M141.7,174.228a45.678,45.678,0,0,1-8.939,5.3l-2.084.9-.855.366c-12.891,5.188-31.645,8.271-55.825,8.012-34.6-.367-57.952-7.322-68.78-17.253,13.063,8.192,35.633,13.854,61.451,14.35,24.309.46,46.045-3.758,59.856-10.671l.108-.058,2.817-1.5a37.492,37.492,0,0,0,6.4-4.563l5.547.058Z" transform="translate(0 -118.582)" fill="#303efa"/>
    <path id="Path_288" data-name="Path 288" d="M379.64,40.406c-.065,4.477-1.99,8.716-5.712,12.51l-.331-5.533-5.6-.058a13.987,13.987,0,0,0,3.155-8.113c.474-14.091-23.957-26.349-57.09-29.928C357.077,11.455,379.877,24.67,379.64,40.406Z" transform="translate(-229.148)" fill="#00d267"/>
    <path id="Path_289" data-name="Path 289" d="M61.069,98.572h4.79l3.548,11.309h.044L73,98.572h4.788v14.922H74.923V101.18H74.88l-4.018,12.314H68L63.978,101.18l-.044.043v12.271H61.069Z" transform="translate(-41.442 -66.245)" fill="#303efa"/>
    <path id="Path_290" data-name="Path 290" d="M135.976,98.572h8.808v2.351h-5.816V104.6h5.324v2.352h-5.324v4.19h5.857v2.351h-8.85Z" transform="translate(-97.018 -66.245)" fill="#303efa"/>
    <path id="Path_291" data-name="Path 291" d="M181.927,100.923h-4.276V98.572H189.2v2.351H184.92v12.571h-2.992Z" transform="translate(-127.938 -66.245)" fill="#303efa"/>
    <path id="Path_292" data-name="Path 292" d="M222.994,98.572h3.377l5.858,14.922h-3.314l-1.282-3.421h-6.05l-1.3,3.421h-3.1Zm1.647,2.993H224.6l-2.159,6.156H226.8Z" transform="translate(-157.266 -66.245)" fill="#303efa"/>
    <path id="Path_293" data-name="Path 293" d="M281.969,98.572h3.784c3.25,0,6.221.94,6.221,4.511,0,3.484-2.544,4.746-5.75,4.746h-1.262v5.665h-2.992Zm2.992,6.905h1.048c1.5,0,2.843-.492,2.843-2.223s-1.3-2.331-2.843-2.331h-1.048Z" transform="translate(-205.336 -66.245)" fill="#303efa"/>
    <path id="Path_294" data-name="Path 294" d="M323.914,98.572h3.377l5.858,14.922h-3.314l-1.282-3.421H322.5l-1.3,3.421h-3.1Zm1.647,2.993h-.044l-2.159,6.156h4.362Z" transform="translate(-232.143 -66.245)" fill="#303efa"/>
    <path id="Path_295" data-name="Path 295" d="M387.847,112.544a15.168,15.168,0,0,1-3.4.47c-4.83,0-8.187-2.416-8.187-7.461,0-5.11,3.121-7.974,8.187-7.974a9.865,9.865,0,0,1,3.379.62l-.214,2.522a6.163,6.163,0,0,0-3.229-.791c-3.078,0-5,2.351-5,5.408,0,3.036,1.881,5.323,5.066,5.323a8.341,8.341,0,0,0,3.272-.619Z" transform="translate(-275.295 -65.509)" fill="#303efa"/>
    <path id="Path_296" data-name="Path 296" d="M429.616,98.572h2.994v6.413L438,98.572h3.677l-6.135,7.033,6.391,7.889h-3.913l-5.366-6.926h-.042v6.926h-2.994Z" transform="translate(-314.881 -66.245)" fill="#303efa"/>
  </g>
</svg>
